<svg width="500" height="240" viewBox="0 0 500 240" fill="none" xmlns="http://www.w3.org/2000/svg">
<path fill-rule="evenodd" clip-rule="evenodd" d="M63.0816 11.7122L63.2573 11.5L220 141.237V90H280H414.25V89.5H415V89.4783C421.693 89.0901 427 83.5399 427 76.75C427 69.9601 421.693 64.4099 415 64.0217V64H414.25H132.686L69.2573 11.5L69.0816 11.7122C63.7644 6.91826 56.723 4 49 4H414.25H415V4.00379C454.833 4.40611 487 36.8216 487 76.75C487 92.7259 481.85 107.499 473.121 119.5C481.85 131.501 487 146.274 487 162.25C487 202.178 454.833 234.594 415 234.996V235H414.25H254.5C270.056 235 282.847 223.16 284.352 208H285V175H414.25H415V174.978C421.693 174.59 427 169.04 427 162.25C427 155.46 421.693 149.91 415 149.522V150H280V205V208H279.852C278.347 223.16 265.556 235 250 235C243.183 235 236.898 232.727 231.86 228.897L231.839 228.922L73 97.4507V235H13V34V32.5H13.0368C13.8184 16.6283 26.9344 4 43 4C44.0125 4 45.0133 4.05016 46 4.14813C52.5396 4.79742 58.4615 7.54676 63.0816 11.7122ZM46 4.14813C46.9867 4.05016 47.9875 4 49 4H46V4.14813Z" fill="url(#paint0_linear_38_2)"/>
<defs>
<linearGradient id="paint0_linear_38_2" x1="13" y1="119.5" x2="487" y2="119.5" gradientUnits="userSpaceOnUse">
<stop stop-color="#512A82"/>
<stop offset="1" stop-color="#E7D8FA"/>
</linearGradient>
</defs>
</svg>
